<svg width="882" height="283" viewBox="0 0 882 283" fill="none" xmlns="http://www.w3.org/2000/svg">
<path d="M441.444 128.159V110.067H477.925V88.7347H418.101V150.626H482.3V128.159H441.444ZM418.101 70.3818H481.568V48.4998H418.101V70.3818Z" fill="white"/>
<path d="M538.431 96.6466H520.924V70.3818H538.431C544.846 70.3818 550.1 76.0684 550.1 83.516C550.1 90.9564 544.846 96.6466 538.431 96.6466ZM554.623 113.128C565.86 107.441 573.443 96.0608 573.443 83.516C573.443 64.113 557.834 48.4962 538.431 48.4962H497.582V150.626H520.924V117.068H532.015L551.272 150.626H576.365L554.623 113.128Z" fill="white"/>
<rect x="591.646" y="48.5005" width="23.3429" height="102.126" rx="3" fill="white"/>
<path d="M653.613 128.159V48.4998H630.27V150.626H690.087V128.159H653.613Z" fill="white"/>
<path d="M799.854 150.626H700.642L708.343 127.98H767.77L750.249 76.4363L738.962 109.627H714.583L735.365 48.4998H765.13L799.854 150.626Z" fill="white"/>
<path d="M839.017 128.159L878.116 66.5919V48.4998H809.544V70.9676H847.918L808.819 132.534V150.626H878.845V128.159H839.017Z" fill="white"/>
<path d="M468.755 209.707C468.755 224.703 458.314 233.808 444.584 233.808C429.171 233.808 418.101 222.459 418.101 208.375C418.101 194.155 429.381 182.803 443.812 182.803C453.203 182.803 461.119 187.429 465.251 194.012L455.725 199.477C453.692 196.255 449.277 193.733 443.744 193.733C435.475 193.733 429.31 199.827 429.31 208.447C429.31 216.784 435.197 222.881 444.723 222.881C451.238 222.881 455.514 220.005 457.264 215.312H444.162V205.503H468.755V209.707Z" fill="white"/>
<path d="M488.373 206.903H496.781C499.864 206.903 502.386 204.171 502.386 200.599C502.386 197.023 499.864 194.291 496.781 194.291H488.373V206.903ZM493.699 216.712H488.373V232.825H477.164V183.782H496.781C506.097 183.782 513.595 191.279 513.595 200.599C513.595 206.625 509.951 212.09 504.558 214.822L514.995 232.825H502.947L493.699 216.712Z" fill="white"/>
<path d="M559.348 208.307C559.348 199.549 553.044 193.734 545.057 193.734C537.07 193.734 530.762 199.549 530.762 208.307C530.762 217.066 537.07 222.881 545.057 222.881C553.044 222.881 559.348 217.066 559.348 208.307ZM519.553 208.307C519.553 193.873 530.972 182.803 545.057 182.803C559.137 182.803 570.557 193.873 570.557 208.307C570.557 222.738 559.137 233.808 545.057 233.808C530.972 233.808 519.553 222.738 519.553 208.307Z" fill="white"/>
<path d="M578.265 216.994V183.786H589.474V216.012C589.474 219.727 591.228 222.881 597.182 222.881C603.137 222.881 604.887 219.727 604.887 216.012V183.786H616.1V216.994C616.1 227.503 607.97 233.808 597.182 233.808C586.391 233.808 578.265 227.503 578.265 216.994Z" fill="white"/>
<path d="M650.784 200.599C650.784 197.027 648.262 194.294 644.829 194.294H637.471V206.903H644.829C648.262 206.903 650.784 204.171 650.784 200.599ZM661.993 200.599C661.993 209.918 654.499 217.415 644.829 217.415H637.471V232.829H626.262V183.785H644.829C654.499 183.785 661.993 191.279 661.993 200.599Z" fill="white"/>
<path d="M686.868 221.688L696.538 216.083C698.288 220.145 701.303 222.877 706.836 222.877C712.161 222.877 713.49 220.777 713.49 218.884C713.49 215.873 710.69 214.683 703.331 212.651C696.045 210.618 688.901 207.114 688.901 197.727C688.901 188.268 696.888 182.803 705.364 182.803C713.422 182.803 719.727 186.657 723.299 193.873L713.84 199.409C712.161 195.905 709.847 193.734 705.364 193.734C701.86 193.734 700.11 195.484 700.11 197.448C700.11 199.688 701.303 201.231 708.936 203.542C716.366 205.785 724.703 208.375 724.703 218.745C724.703 228.203 717.134 233.808 706.486 233.808C696.187 233.808 689.601 228.903 686.868 221.688Z" fill="white"/>
<circle cx="737.957" cy="228.499" r="8" fill="white"/>
<path d="M778.089 214.611L772.346 196.605L766.598 214.611H778.089ZM781.454 225.12H763.237L760.783 232.829H748.524L765.198 183.785H779.489L796.164 232.829H783.904L781.454 225.12Z" fill="white"/>
<circle cx="810.822" cy="228.499" r="8" fill="white"/>
<path d="M822.439 221.688L832.108 216.083C833.859 220.145 836.873 222.877 842.406 222.877C847.732 222.877 849.061 220.777 849.061 218.884C849.061 215.873 846.261 214.683 838.902 212.651C831.615 210.618 824.471 207.114 824.471 197.727C824.471 188.268 832.458 182.803 840.935 182.803C848.993 182.803 855.298 186.657 858.87 193.873L849.411 199.409C847.732 195.905 845.418 193.734 840.935 193.734C837.431 193.734 835.68 195.484 835.68 197.448C835.68 199.688 836.873 201.231 844.507 203.542C851.936 205.785 860.273 208.375 860.273 218.745C860.273 228.203 852.704 233.808 842.056 233.808C831.758 233.808 825.172 228.903 822.439 221.688Z" fill="white"/>
<circle cx="873.528" cy="228.499" r="8" fill="white"/>
<path d="M371.308 238.952H0L16.7955 209.865H314.678L309.605 201.081L212.651 33.1481L193.512 3.05176e-05H233.354L371.308 238.952Z" fill="white"/>
<path d="M299.243 201.078H259.537L190.937 82.2627L187.615 76.5046L185.933 73.5935L107.26 209.865H67.6821L186.001 4.93275L205.786 39.2095L207.468 42.1207L210.794 47.8787L299.243 201.078Z" fill="white"/>
<path d="M162.393 201.078H122.337L185.929 90.939L205.954 125.627L162.393 201.078Z" fill="white"/>
<path d="M371.412 247.628L351.387 282.312H25.3789L45.3856 247.66H351.569L351.551 247.628H371.412Z" fill="white"/>
</svg>
