<svg width="314" height="309" viewBox="0 0 314 309" fill="none" xmlns="http://www.w3.org/2000/svg">
<path d="M167.327 146.233L194.222 190.147L213.329 190.144L152.428 85.1257L79.5752 210.419L101.924 210.179L152.82 121.282L167.327 146.233Z" fill="#F2F2F2"/>
<path d="M65.5874 192.727L238.9 192.706L249.26 209.125L55.2976 210.435L65.5874 192.727Z" fill="#F2F2F2"/>
<path d="M218.138 191.244L228.212 209.147L202.884 209.208L248.922 209.097L175.884 83.483L155.513 83.534L218.138 191.244Z" fill="#F2F2F2"/>
<path d="M218.138 191.244L228.212 209.147L202.884 209.208L248.922 209.097L175.884 83.483L155.513 83.534L218.138 191.244Z" fill="#F2F2F2"/>
<path d="M78.6157 212.702L248.951 212.366L238.91 229.408L68.251 230.393L78.6157 212.702Z" fill="#F2F2F2"/>
<path d="M163.134 146.375L136.901 191.442L116.179 191.445L152.775 128.028L163.134 146.375Z" fill="#F2F2F2"/>
</svg>
